<?xml version="1.0" standalone="no"?>
<!DOCTYPE svg PUBLIC "-//W3C//DTD SVG 20010904//EN"
 "http://www.w3.org/TR/2001/REC-SVG-20010904/DTD/svg10.dtd">
<svg version="1.0" xmlns="http://www.w3.org/2000/svg"
 width="297.000000pt" height="223.000000pt" viewBox="0 0 297.000000 223.000000"
 preserveAspectRatio="xMidYMid meet">

<g transform="translate(0.000000,223.000000) scale(0.100000,-0.100000)"
fill="#000000" stroke="none">
<path d="M1501 2077 c9 -20 10 -36 2 -62 -13 -43 3 -63 36 -45 33 17 27 60
-15 101 -35 33 -35 33 -23 6z"/>
<path d="M1358 2083 c6 -2 18 -2 25 0 6 3 1 5 -13 5 -14 0 -19 -2 -12 -5z"/>
<path d="M1165 2071 c-19 -8 -18 -10 8 -20 41 -16 59 -14 55 7 -4 19 -33 25
-63 13z"/>
<path d="M1265 2070 c-3 -5 1 -10 9 -10 9 0 16 5 16 10 0 6 -4 10 -9 10 -6 0
-13 -4 -16 -10z"/>
<path d="M971 2057 c-17 -22 -6 -37 27 -37 23 1 25 2 11 13 -9 7 -18 18 -20
26 -4 11 -7 10 -18 -2z"/>
<path d="M1070 2056 c-10 -13 -7 -21 18 -46 42 -42 55 -38 33 12 -20 47 -32
56 -51 34z"/>
<path d="M1441 2054 c-12 -9 -37 -17 -54 -18 -25 -1 -32 -6 -32 -21 0 -34 47
-31 89 5 50 44 48 69 -3 34z"/>
<path d="M1743 2034 c-4 -10 1 -22 10 -29 23 -16 22 -18 -17 -39 -53 -29 -76
-106 -33 -114 29 -6 47 17 47 59 0 47 30 79 74 79 l30 0 -40 30 c-45 34 -62
37 -71 14z"/>
<path d="M1622 2028 c-16 -21 -24 -74 -16 -115 l7 -38 15 35 c7 19 25 44 38
57 28 26 30 36 8 57 -19 19 -38 20 -52 4z"/>
<path d="M853 2007 c-28 -35 -21 -130 11 -157 13 -10 13 -7 3 19 -8 23 -8 38
1 64 20 57 10 107 -15 74z"/>
<path d="M1257 1976 c35 -22 44 -35 57 -80 17 -57 35 -72 67 -56 23 13 34 50
25 86 -8 31 -70 61 -143 70 l-48 6 42 -26z"/>
<path d="M1894 1985 c-12 -8 -24 -28 -28 -45 -4 -25 -10 -30 -24 -25 -22 6
-45 -16 -40 -41 2 -9 26 -30 55 -46 l52 -29 -11 38 c-5 21 -16 45 -24 54 -12
13 -11 18 9 37 15 14 30 19 45 15 27 -7 30 17 6 41 -19 19 -15 19 -40 1z"/>
<path d="M947 1983 c-27 -26 15 -51 49 -28 13 8 34 15 46 15 19 0 20 2 8 10
-17 11 -93 13 -103 3z"/>
<path d="M746 1938 c-9 -12 -14 -24 -12 -26 9 -8 46 19 46 33 0 22 -17 18 -34
-7z"/>
<path d="M1155 1950 c-10 -16 4 -62 15 -55 13 8 13 52 1 60 -5 3 -13 0 -16 -5z"/>
<path d="M635 1911 c-16 -3 -30 -13 -30 -20 0 -24 22 -23 51 3 30 26 28 28
-21 17z"/>
<path d="M890 1904 c0 -8 5 -12 10 -9 6 3 10 10 10 16 0 5 -4 9 -10 9 -5 0
-10 -7 -10 -16z"/>
<path d="M1531 1911 c-8 -6 -11 -16 -7 -27 6 -16 8 -16 23 -1 20 19 6 41 -16
28z"/>
<path d="M2045 1910 c-6 -10 44 -35 53 -26 8 8 -19 36 -34 36 -7 0 -16 -5 -19
-10z"/>
<path d="M972 1876 c60 -57 140 -45 107 16 -8 16 -17 18 -37 13 -37 -9 -64
-10 -87 -1 -13 5 -6 -5 17 -28z"/>
<path d="M1235 1890 c-7 -12 12 -50 25 -50 11 0 13 21 4 44 -7 18 -20 21 -29
6z"/>
<path d="M1961 1879 c-19 -7 -22 -12 -13 -21 9 -9 17 -7 34 10 24 23 18 27
-21 11z"/>
<path d="M1466 1845 c-8 -39 -2 -55 19 -55 21 0 24 23 5 58 l-18 32 -6 -35z"/>
<path d="M1120 1855 c0 -9 7 -18 15 -22 24 -9 27 1 5 20 -17 14 -20 15 -20 2z"/>
<path d="M2137 1864 c-17 -17 -6 -61 17 -74 24 -13 56 -8 56 8 0 14 -66 73
-73 66z"/>
<path d="M675 1839 c-22 -11 -51 -28 -65 -39 l-25 -19 55 5 c48 5 59 3 89 -20
19 -14 43 -26 53 -26 23 0 41 35 32 63 -18 59 -67 72 -139 36z"/>
<path d="M518 1824 c-16 -8 -28 -19 -28 -25 0 -18 32 -5 48 19 17 26 16 26
-20 6z"/>
<path d="M915 1808 c-12 -62 26 -116 61 -87 21 17 14 52 -13 64 -13 5 -23 17
-23 27 0 32 -19 29 -25 -4z"/>
<path d="M2026 1816 c-22 -34 -22 -34 22 -27 28 5 37 11 37 26 0 31 -39 31
-59 1z"/>
<path d="M1735 1823 c11 -3 26 -10 33 -16 7 -5 16 -7 19 -3 11 11 -19 26 -47
25 -21 -1 -21 -2 -5 -6z"/>
<path d="M1555 1790 c-17 -32 -11 -36 29 -20 16 6 26 17 26 30 0 32 -37 25
-55 -10z"/>
<path d="M1927 1813 c-10 -10 -8 -66 3 -83 8 -13 10 -12 10 4 0 11 9 30 21 42
12 12 18 27 14 33 -7 12 -38 15 -48 4z"/>
<path d="M1280 1785 c-18 -19 -21 -28 -13 -36 19 -19 43 -2 43 31 0 16 -1 30
-3 30 -2 0 -14 -11 -27 -25z"/>
<path d="M1692 1778 c0 -13 -2 -40 -7 -60 -5 -26 -4 -38 4 -38 20 0 31 46 20
84 -11 41 -19 47 -17 14z"/>
<path d="M1380 1779 c0 -6 -17 -27 -37 -45 -25 -23 -34 -37 -27 -44 13 -13 60
36 69 73 4 15 4 27 1 27 -3 0 -6 -5 -6 -11z"/>
<path d="M1050 1770 c36 -12 72 -12 65 0 -3 6 -25 10 -48 9 -36 -1 -38 -2 -17
-9z"/>
<path d="M1182 1773 c-20 -7 -44 -62 -37 -83 15 -46 101 -9 93 41 -3 24 -36
49 -56 42z"/>
<path d="M1770 1765 c-6 -8 -9 -19 -5 -25 11 -19 42 -10 53 15 11 23 10 25
-12 25 -13 0 -29 -7 -36 -15z"/>
<path d="M2235 1748 c-7 -22 -18 -34 -35 -38 -33 -8 -33 -40 -1 -57 39 -19 61
-1 60 50 0 23 -4 50 -8 60 -5 15 -8 12 -16 -15z"/>
<path d="M2106 1754 c-11 -29 -6 -34 19 -18 14 9 22 20 19 25 -9 14 -31 10
-38 -7z"/>
<path d="M1602 1722 c-21 -22 -31 -41 -27 -51 5 -13 12 -10 36 17 16 18 29 41
29 52 0 24 2 25 -38 -18z"/>
<path d="M1986 1730 c11 -64 64 -93 64 -34 0 17 -6 24 -19 24 -10 0 -26 10
-35 23 -16 22 -16 22 -10 -13z"/>
<path d="M563 1720 c36 -42 41 -65 20 -96 -14 -22 -14 -26 -3 -22 8 2 22 24
30 47 l15 43 -35 29 c-45 38 -59 37 -27 -1z"/>
<path d="M422 1728 c-19 -19 -14 -30 10 -26 13 2 24 11 26 21 4 20 -18 23 -36
5z"/>
<path d="M657 1733 c-13 -12 -7 -44 8 -49 8 -4 22 -1 30 6 12 10 22 10 43 1
26 -11 26 -11 -6 19 -31 29 -61 38 -75 23z"/>
<path d="M1442 1719 c1 -13 8 -23 13 -21 15 3 12 35 -3 40 -9 3 -13 -3 -10
-19z"/>
<path d="M518 1689 c-12 -27 -23 -39 -37 -39 -30 0 -27 -35 3 -55 30 -20 61
-7 69 27 5 20 -5 94 -15 103 -2 2 -11 -14 -20 -36z"/>
<path d="M1835 1712 c-33 -21 -60 -50 -53 -57 4 -5 45 11 88 34 19 10 26 41 8
41 -7 0 -26 -8 -43 -18z"/>
<path d="M836 1694 c-18 -18 -24 -150 -6 -139 6 3 10 12 10 20 0 7 14 26 30
42 31 29 38 61 18 81 -16 16 -33 15 -52 -4z"/>
<path d="M1023 1670 c-31 -19 -41 -39 -27 -53 8 -7 36 6 56 26 8 8 27 21 43
30 l30 16 -35 1 c-19 0 -50 -9 -67 -20z"/>
<path d="M1507 1684 c-4 -4 -7 -20 -7 -36 0 -26 2 -27 20 -16 12 7 19 21 18
32 -3 21 -20 31 -31 20z"/>
<path d="M2296 1673 c-3 -4 -6 -15 -6 -25 0 -14 8 -18 35 -18 19 0 35 4 35 9
0 17 -52 45 -64 34z"/>
<path d="M2146 1645 c4 -23 0 -35 -15 -49 -12 -11 -21 -25 -21 -32 0 -14 27
-44 40 -44 19 0 40 34 40 65 0 22 -9 44 -25 62 l-25 28 6 -30z"/>
<path d="M1937 1653 c-11 -10 -8 -63 3 -63 6 0 10 16 10 35 0 36 -2 40 -13 28z"/>
<path d="M370 1638 c0 -22 14 -35 43 -42 l28 -7 -16 31 c-15 30 -55 43 -55 18z"/>
<path d="M675 1636 c-32 -14 -85 -69 -85 -89 0 -6 12 1 28 15 15 14 41 29 59
33 31 6 51 31 36 46 -4 4 -22 2 -38 -5z"/>
<path d="M1386 1634 c-3 -9 -2 -23 4 -32 7 -14 9 -10 10 16 0 35 -5 41 -14 16z"/>
<path d="M2072 1629 c1 -13 8 -23 13 -21 15 3 12 35 -3 40 -9 3 -13 -3 -10
-19z"/>
<path d="M926 1606 c-19 -35 -16 -71 6 -64 23 8 32 35 22 68 l-9 31 -19 -35z"/>
<path d="M1855 1629 c-7 -11 22 -49 37 -49 4 0 8 9 8 20 0 23 -35 46 -45 29z"/>
<path d="M758 1625 c-2 -3 -3 -19 0 -35 3 -25 7 -28 18 -19 8 6 14 17 14 24 0
14 -24 37 -32 30z"/>
<path d="M330 1606 c0 -8 -5 -16 -12 -18 -6 -2 -8 -10 -4 -17 6 -9 11 -9 22 0
16 13 18 35 4 44 -5 3 -10 0 -10 -9z"/>
<path d="M1434 1595 c-9 -36 -3 -38 29 -11 28 24 26 36 -4 36 -12 0 -21 -10
-25 -25z"/>
<path d="M1982 1580 c2 -32 7 -45 18 -45 24 0 24 48 0 70 l-21 19 3 -44z"/>
<path d="M2390 1580 c-9 -6 -10 -10 -3 -10 6 0 15 5 18 10 8 12 4 12 -15 0z"/>
<path d="M2266 1564 c-3 -9 -6 -28 -6 -42 1 -23 3 -22 15 13 18 48 17 45 6 45
-5 0 -12 -7 -15 -16z"/>
<path d="M448 1534 c-16 -8 -28 -19 -28 -25 0 -6 6 -7 13 -2 6 4 32 10 56 13
54 6 69 30 19 30 -18 -1 -45 -8 -60 -16z"/>
<path d="M667 1543 c-13 -12 -7 -60 8 -73 11 -9 35 -11 80 -7 54 5 63 4 58 -9
-5 -15 13 -44 28 -44 5 0 13 9 19 20 13 24 0 54 -31 71 -15 8 -19 8 -15 0 5
-7 -4 -11 -23 -11 -22 0 -39 9 -58 30 -25 29 -52 38 -66 23z"/>
<path d="M600 1529 c-29 -12 -40 -26 -40 -56 0 -16 -10 -28 -32 -38 -18 -8
-25 -13 -16 -11 26 7 85 -13 92 -31 8 -21 -12 -34 -41 -26 -15 3 -23 1 -23 -7
0 -9 11 -11 34 -7 28 5 35 2 45 -19 6 -13 15 -24 20 -24 6 0 6 -11 -1 -30 -12
-35 -7 -94 15 -169 23 -78 75 -127 91 -85 11 29 -4 55 -35 61 -25 5 -49 28
-49 46 0 2 21 1 47 -4 35 -7 55 -19 84 -49 43 -45 67 -50 94 -20 26 29 11 70
-30 82 -33 10 -109 11 -138 2 -16 -5 -17 -3 -8 14 15 29 14 77 -3 91 -24 20
-26 50 -5 61 43 24 11 104 -52 130 -30 13 -31 15 -25 57 3 24 5 43 3 42 -1 0
-13 -5 -27 -10z"/>
<path d="M285 1513 l-50 -15 45 -24 c57 -29 105 -31 120 -4 16 30 -4 60 -38
59 -15 0 -49 -7 -77 -16z"/>
<path d="M2332 1518 c-17 -17 -15 -48 4 -55 8 -3 38 -2 66 3 l50 9 -22 28
c-23 29 -75 38 -98 15z"/>
<path d="M880 1513 c0 -6 9 -18 21 -29 17 -16 22 -16 29 -4 14 22 12 30 -5 24
-8 -4 -22 -1 -30 6 -8 7 -15 8 -15 3z"/>
<path d="M2121 1491 c-25 -25 -26 -30 -5 -59 12 -18 25 -22 67 -22 30 0 69 9
92 19 l40 19 -37 1 c-23 1 -47 10 -65 25 -43 36 -69 40 -92 17z"/>
<path d="M2030 1479 c-17 -14 -34 -19 -57 -17 -31 4 -33 2 -33 -29 0 -18 2
-33 5 -33 19 0 66 34 89 64 31 41 31 43 -4 15z"/>
<path d="M452 1464 c-26 -18 -29 -39 -6 -48 9 -3 17 -6 19 -6 1 0 15 16 29 35
l27 35 -23 0 c-13 0 -34 -7 -46 -16z"/>
<path d="M1246 1449 c-3 -8 -13 -36 -23 -64 l-19 -50 -64 -3 c-37 -2 -74 2
-86 9 -31 16 -56 5 -52 -23 2 -17 11 -24 31 -26 15 -2 27 1 27 7 0 7 31 11 84
11 l84 0 7 30 c4 16 10 32 14 35 5 2 21 -43 36 -100 15 -58 33 -105 39 -105 6
0 22 25 35 56 16 36 27 51 31 42 4 -7 20 -64 35 -125 17 -72 32 -113 40 -113
7 0 21 21 31 48 9 26 32 85 49 132 18 47 36 95 39 108 12 36 21 26 45 -48 l22
-70 50 0 c27 0 58 -5 68 -12 26 -16 51 -3 51 26 0 27 -23 40 -48 27 -9 -5 -35
-11 -57 -12 l-40 -4 -30 90 c-18 55 -35 90 -44 90 -13 0 -24 -27 -94 -217 -17
-49 -34 -88 -38 -88 -3 0 -19 53 -35 117 -17 64 -36 119 -42 121 -7 2 -24 -21
-38 -55 l-27 -58 -28 110 c-29 110 -44 141 -53 114z"/>
<path d="M2032 1438 c-18 -18 -15 -40 6 -36 9 2 18 13 20 26 4 24 -7 29 -26
10z"/>
<path d="M272 1396 c-18 -40 -15 -96 8 -133 22 -36 29 -39 52 -20 30 24 29 47
-4 80 -18 19 -34 46 -37 66 l-6 35 -13 -28z"/>
<path d="M2095 1387 c19 -46 20 -41 -17 -76 -40 -37 -58 -38 -96 -6 -34 29
-42 31 -42 11 0 -7 10 -20 23 -29 18 -12 20 -18 10 -28 -16 -16 -17 -51 -1
-67 8 -8 9 -12 1 -12 -14 0 -63 57 -63 73 0 7 -9 -1 -20 -18 l-19 -30 27 -14
c29 -16 182 -25 182 -11 0 4 -10 10 -23 14 -13 3 -30 20 -40 41 l-17 35 25 0
c14 0 25 -6 25 -13 0 -17 32 -47 49 -47 6 0 23 11 36 25 42 41 29 110 -29 165
l-27 24 16 -37z"/>
<path d="M2448 1404 c13 -9 26 -13 30 -9 8 8 -17 25 -38 25 -9 0 -6 -6 8 -16z"/>
<path d="M2252 1399 c-13 -5 -22 -15 -20 -21 7 -19 43 -21 58 -3 7 8 20 15 29
16 12 0 11 2 -4 9 -25 11 -35 11 -63 -1z"/>
<path d="M347 1388 c12 -6 23 -19 26 -29 6 -22 42 -25 51 -4 7 20 -31 45 -69
44 -28 0 -29 -1 -8 -11z"/>
<path d="M922 1370 c0 -14 2 -19 5 -12 2 6 2 18 0 25 -3 6 -5 1 -5 -13z"/>
<path d="M786 1371 l-29 -6 42 -23 c53 -30 85 -26 89 11 3 25 1 27 -35 26 -21
-1 -51 -4 -67 -8z"/>
<path d="M1987 1373 c-12 -12 -7 -43 7 -49 19 -7 53 11 66 36 10 18 7 20 -28
20 -21 0 -42 -3 -45 -7z"/>
<path d="M2335 1369 c-51 -12 -69 -29 -31 -29 15 0 40 -7 56 -16 33 -20 60
-13 60 15 0 17 -29 44 -42 40 -2 -1 -21 -5 -43 -10z"/>
<path d="M2190 1314 c9 -56 33 -84 58 -68 30 19 24 40 -21 77 l-44 36 7 -45z"/>
<path d="M2490 1334 l-25 -25 32 18 c18 10 33 21 33 26 0 13 -15 6 -40 -19z"/>
<path d="M370 1306 c0 -14 5 -26 10 -26 6 0 10 9 10 19 0 11 -4 23 -10 26 -6
4 -10 -5 -10 -19z"/>
<path d="M480 1323 c0 -5 -11 -15 -25 -21 -14 -6 -25 -19 -25 -27 0 -13 4 -14
20 -5 22 12 45 49 36 58 -3 3 -6 1 -6 -5z"/>
<path d="M2300 1317 c0 -27 19 -57 35 -57 8 0 15 9 15 20 0 11 -7 20 -15 20
-7 0 -19 8 -24 18 -10 16 -10 16 -11 -1z"/>
<path d="M730 1301 c-12 -9 -12 -11 2 -16 21 -8 48 -3 51 10 3 14 -34 17 -53
6z"/>
<path d="M563 1270 c12 -31 21 -37 32 -19 7 10 -21 49 -36 49 -4 0 -2 -13 4
-30z"/>
<path d="M2522 1288 c3 -7 18 -14 34 -16 28 -3 28 -3 9 12 -24 19 -48 21 -43
4z"/>
<path d="M800 1271 c-5 -11 -9 -39 -9 -63 1 -27 3 -34 6 -18 3 13 11 33 19 44
16 23 19 56 4 56 -5 0 -14 -9 -20 -19z"/>
<path d="M877 1273 c-3 -5 8 -8 23 -8 16 0 32 3 36 8 4 4 -7 7 -24 7 -17 0
-33 -3 -35 -7z"/>
<path d="M2413 1270 c-35 -14 -56 -55 -50 -95 4 -26 3 -34 -6 -29 -33 19 -47
40 -48 73 l-1 36 -13 -30 c-29 -63 -10 -161 36 -186 20 -10 25 -9 41 11 10 12
18 32 18 44 1 20 1 20 23 -4 13 -14 33 -34 45 -44 l22 -19 -15 36 c-19 46 -19
75 0 120 19 46 19 62 -1 81 -17 18 -20 18 -51 6z"/>
<path d="M502 1248 c-20 -20 -14 -36 20 -52 43 -22 65 -22 47 0 -7 9 -18 25
-24 37 -13 26 -27 31 -43 15z"/>
<path d="M2190 1210 c8 -44 4 -76 -13 -98 -8 -10 -14 -9 -28 4 -16 14 -21 15
-34 4 -9 -7 -20 -21 -26 -31 -8 -15 -5 -17 18 -16 24 2 29 -2 31 -26 9 -76
122 -45 122 33 0 38 -27 111 -54 144 l-24 29 8 -43z"/>
<path d="M2552 1215 c9 -16 19 -45 23 -62 7 -33 18 -42 30 -23 7 12 -28 81
-51 101 -16 13 -16 12 -2 -16z"/>
<path d="M874 1203 c-11 -10 -14 -14 -8 -10 7 5 31 7 53 5 22 -2 41 2 43 7 6
19 -67 17 -88 -2z"/>
<path d="M363 1198 c-5 -10 5 -28 16 -28 5 0 19 8 30 18 l22 17 -31 0 c-18 0
-34 -3 -37 -7z"/>
<path d="M2495 1191 c-8 -15 35 -35 47 -23 6 6 7 15 4 21 -9 14 -43 14 -51 2z"/>
<path d="M1855 1164 c16 -39 17 -70 1 -83 -12 -11 -14 -17 -5 -27 17 -20 53
-17 74 6 17 19 17 23 3 53 -9 17 -30 41 -48 51 -33 19 -33 19 -25 0z"/>
<path d="M1002 1148 c3 -7 15 -14 29 -16 23 -2 23 -2 5 13 -24 18 -39 20 -34
3z"/>
<path d="M385 1136 c-11 -8 -16 -19 -12 -30 9 -23 20 -20 39 14 19 33 7 41
-27 16z"/>
<path d="M505 1140 c-3 -5 3 -10 14 -10 12 0 21 5 21 10 0 6 -6 10 -14 10 -8
0 -18 -4 -21 -10z"/>
<path d="M943 1113 c26 -41 47 -54 47 -28 0 18 -43 65 -60 65 -6 0 0 -17 13
-37z"/>
<path d="M2058 1139 c-10 -5 -18 -16 -18 -24 0 -27 19 -25 40 5 22 31 12 40
-22 19z"/>
<path d="M2510 1130 c6 -12 8 -29 5 -40 -6 -20 10 -37 20 -21 6 11 -20 81 -30
81 -3 0 -1 -9 5 -20z"/>
<path d="M1980 1106 c-14 -37 -13 -46 5 -40 19 8 30 43 16 57 -7 7 -13 2 -21
-17z"/>
<path d="M594 1101 c0 -11 4 -17 8 -15 4 3 8 12 8 20 0 8 -4 14 -8 14 -4 0 -8
-9 -8 -19z"/>
<path d="M1766 1081 c-34 -35 -37 -42 -30 -72 l7 -34 9 31 c6 24 15 33 38 37
25 6 30 11 30 36 0 44 -13 44 -54 2z"/>
<path d="M454 1089 c15 -14 31 -40 34 -58 9 -42 34 -61 60 -45 22 14 27 41 11
60 -14 17 -69 47 -109 59 -24 8 -24 7 4 -16z"/>
<path d="M2595 1089 c-4 -6 2 -21 14 -32 l21 -21 0 21 c0 26 -25 49 -35 32z"/>
<path d="M780 1053 c0 -19 -10 -44 -26 -62 -30 -36 -26 -61 10 -61 51 0 65 71
28 136 -10 17 -11 15 -12 -13z"/>
<path d="M1116 1057 c3 -10 9 -15 12 -12 3 3 0 11 -7 18 -10 9 -11 8 -5 -6z"/>
<path d="M1015 1050 c-25 -10 -81 -68 -73 -75 3 -4 21 3 39 14 19 12 51 21 72
21 33 0 37 3 37 25 0 21 -5 25 -27 24 -16 0 -37 -4 -48 -9z"/>
<path d="M2014 1045 c-16 -41 38 -77 84 -55 25 11 26 13 7 20 -11 5 -28 18
-37 29 -21 25 -46 27 -54 6z"/>
<path d="M432 1021 c2 -14 9 -26 16 -29 17 -5 15 10 -3 34 -15 18 -15 18 -13
-5z"/>
<path d="M897 1033 c-12 -11 -8 -23 7 -23 8 0 16 7 20 15 5 15 -14 21 -27 8z"/>
<path d="M2538 1028 c7 -7 12 -23 12 -36 0 -31 34 -26 38 6 3 16 -4 25 -23 32
-35 13 -42 13 -27 -2z"/>
<path d="M603 1013 c-27 -27 -28 -36 -7 -58 23 -23 36 -6 32 41 l-3 39 -22
-22z"/>
<path d="M1824 1005 c-4 -9 0 -30 7 -47 l13 -32 9 33 c9 36 4 61 -13 61 -6 0
-13 -7 -16 -15z"/>
<path d="M2400 1002 c0 -12 16 -40 38 -62 28 -31 45 -40 70 -40 40 0 100 24
118 48 21 27 17 31 -23 16 -53 -18 -83 -17 -121 6 -18 11 -39 20 -47 20 -8 0
-19 8 -24 18 -9 15 -10 15 -11 -6z"/>
<path d="M661 1001 c-18 -12 -10 -81 14 -113 11 -14 15 -17 12 -6 -4 10 1 38
11 63 15 40 15 47 2 55 -18 12 -21 12 -39 1z"/>
<path d="M1672 984 c-25 -17 -30 -44 -8 -44 8 0 19 14 25 30 12 35 12 35 -17
14z"/>
<path d="M1925 970 c-22 -42 -19 -46 10 -12 27 32 31 42 15 42 -5 0 -16 -13
-25 -30z"/>
<path d="M2305 978 c9 -29 44 -68 61 -68 12 0 40 38 32 45 -7 6 -88 45 -93 45
-4 0 -3 -10 0 -22z"/>
<path d="M832 968 c-16 -19 -36 -132 -28 -154 6 -16 9 -15 23 14 8 17 31 41
49 53 38 23 53 61 34 84 -15 18 -64 20 -78 3z"/>
<path d="M1144 965 c-13 -34 26 -47 62 -20 19 14 19 14 -3 15 -12 0 -25 5 -28
10 -9 15 -25 12 -31 -5z"/>
<path d="M1060 959 c0 -8 7 -24 16 -35 14 -18 15 -18 8 6 -8 31 -24 50 -24 29z"/>
<path d="M2065 950 c16 -53 68 -91 92 -67 24 24 7 59 -27 55 -17 -1 -37 5 -50
17 l-23 20 8 -25z"/>
<path d="M2205 909 c0 -30 4 -49 11 -49 25 0 25 69 0 89 -8 7 -11 -4 -11 -40z"/>
<path d="M957 933 c-6 -5 10 -18 51 -39 21 -11 38 12 22 31 -12 15 -61 21 -73
8z"/>
<path d="M1712 885 c-1 -41 2 -55 11 -52 7 2 11 19 9 43 -5 63 -18 69 -20 9z"/>
<path d="M1973 929 c-6 -6 -8 -19 -6 -30 4 -15 8 -17 19 -8 15 12 19 49 6 49
-4 0 -13 -5 -19 -11z"/>
<path d="M1788 919 c-27 -15 -22 -33 21 -67 l40 -32 -6 38 c-7 48 -31 75 -55
61z"/>
<path d="M1267 909 c7 -7 15 -10 18 -7 3 3 -2 9 -12 12 -14 6 -15 5 -6 -5z"/>
<path d="M1646 894 c-7 -23 1 -54 15 -54 11 0 11 27 0 55 -8 20 -8 20 -15 -1z"/>
<path d="M2277 886 c-5 -15 -6 -31 -3 -34 8 -8 18 25 14 45 -3 13 -6 10 -11
-11z"/>
<path d="M709 887 c6 -8 10 -31 8 -53 -2 -33 1 -39 19 -42 11 -2 27 4 34 13
23 28 -19 95 -61 95 -8 0 -9 -3 0 -13z"/>
<path d="M1209 888 c-26 -20 -32 -54 -14 -72 28 -27 82 -20 117 15 30 30 30
30 11 44 -31 22 -95 29 -114 13z"/>
<path d="M2623 881 c-8 -12 -20 -17 -35 -14 -15 3 -30 -2 -38 -12 -11 -14 -11
-18 2 -32 23 -23 57 -7 74 34 17 39 15 52 -3 24z"/>
<path d="M1554 882 c-17 -11 -23 -71 -8 -83 18 -15 54 6 54 32 0 23 -17 59
-28 59 -4 0 -12 -4 -18 -8z"/>
<path d="M1888 860 c5 -33 13 -37 31 -16 9 11 8 18 -4 30 -24 24 -32 20 -27
-14z"/>
<path d="M1093 858 c-46 -51 -52 -98 -12 -98 23 0 42 34 34 60 -3 11 -1 28 5
40 14 27 -1 26 -27 -2z"/>
<path d="M2017 873 c-17 -16 -3 -36 39 -54 25 -11 53 -18 62 -14 14 5 10 9
-15 20 -18 7 -38 23 -45 34 -13 21 -29 27 -41 14z"/>
<path d="M2347 867 c-4 -10 -7 -41 -7 -67 0 -37 6 -55 24 -77 20 -23 28 -26
43 -17 11 7 18 23 18 44 0 27 -6 37 -30 50 -22 12 -31 26 -35 51 -4 27 -7 30
-13 16z"/>
<path d="M909 855 c-14 -8 -34 -26 -43 -39 -16 -26 -16 -26 9 -14 19 9 31 8
49 -1 29 -16 56 -11 70 12 9 15 7 22 -13 38 -27 22 -37 23 -72 4z"/>
<path d="M2403 853 c-8 -21 25 -45 51 -37 22 7 56 33 56 43 0 3 -23 7 -50 8
-39 2 -52 -2 -57 -14z"/>
<path d="M1450 811 c-8 -6 -18 -7 -22 -5 -11 7 -10 -7 1 -25 12 -19 41 -6 41
19 0 23 0 23 -20 11z"/>
<path d="M1759 809 c13 -5 37 -21 54 -35 29 -25 58 -21 42 6 -10 16 -69 40
-97 39 l-23 0 24 -10z"/>
<path d="M2172 808 c-7 -7 -12 -35 -12 -62 l0 -51 19 32 c11 17 30 33 42 35
29 4 34 21 14 42 -19 19 -46 21 -63 4z"/>
<path d="M1931 788 c-12 -33 -3 -48 28 -48 18 0 32 -9 44 -27 l18 -28 -6 40
c-7 42 -39 85 -62 85 -8 0 -17 -10 -22 -22z"/>
<path d="M1350 783 c0 -10 -5 -24 -12 -31 -15 -15 7 -43 28 -35 19 7 18 57 -1
73 -12 10 -15 9 -15 -7z"/>
<path d="M2492 778 c-20 -20 -14 -47 11 -52 57 -12 97 -16 97 -11 0 16 -31 63
-45 69 -26 9 -50 7 -63 -6z"/>
<path d="M1626 764 c-11 -8 -41 -14 -67 -14 -50 0 -67 -11 -46 -28 20 -17 154
34 136 52 -2 2 -13 -2 -23 -10z"/>
<path d="M819 720 c15 -50 31 -66 31 -32 0 15 -35 82 -43 82 -2 0 3 -22 12
-50z"/>
<path d="M911 746 c-14 -15 -24 -41 -27 -68 l-5 -43 16 28 c11 19 24 27 44 27
34 0 54 21 49 52 -4 33 -47 36 -77 4z"/>
<path d="M2062 749 c-12 -19 -11 -20 10 -17 13 2 23 9 23 17 0 23 -19 23 -33
0z"/>
<path d="M1723 740 c-28 -17 -33 -25 -33 -59 0 -42 47 -121 88 -149 22 -14 22
-14 7 14 -19 37 -19 95 0 120 21 28 19 71 -4 84 -25 13 -20 13 -58 -10z"/>
<path d="M752 738 c2 -6 10 -14 16 -16 7 -2 10 2 6 12 -7 18 -28 22 -22 4z"/>
<path d="M2241 721 c-34 -26 -40 -96 -12 -153 35 -68 47 -81 70 -73 12 3 26
16 32 27 11 20 10 20 -12 4 -33 -23 -48 -20 -60 11 -16 41 -2 80 32 92 33 11
33 12 19 -24 -9 -24 -8 -26 12 -19 33 10 48 24 48 45 0 12 -7 19 -19 19 -14 0
-17 6 -14 24 12 58 -45 86 -96 47z"/>
<path d="M1126 715 c-11 -8 -15 -15 -9 -15 6 0 16 7 23 15 16 19 11 19 -14 0z"/>
<path d="M1870 705 c0 -18 7 -26 24 -31 14 -3 30 -3 36 1 6 4 22 -1 36 -10 25
-16 25 -16 15 4 -16 30 -61 61 -87 61 -19 0 -24 -5 -24 -25z"/>
<path d="M1203 708 c-15 -19 -1 -49 41 -86 51 -45 81 -43 37 2 -18 18 -33 46
-35 62 -3 31 -26 43 -43 22z"/>
<path d="M1032 698 c-19 -19 -14 -55 9 -72 13 -9 22 -25 22 -41 0 -39 18 -15
23 31 7 60 -26 110 -54 82z"/>
<path d="M1300 689 c0 -15 40 -50 50 -44 17 11 11 23 -20 39 -16 8 -30 10 -30
5z"/>
<path d="M1425 667 c-8 -40 4 -65 24 -53 15 9 13 36 -3 66 l-14 25 -7 -38z"/>
<path d="M1638 694 c-5 -4 -8 -21 -7 -38 0 -30 0 -30 10 -7 11 27 8 57 -3 45z"/>
<path d="M2087 676 c-5 -14 40 -86 54 -86 4 0 10 14 14 31 5 22 2 36 -11 50
-20 22 -50 25 -57 5z"/>
<path d="M1810 665 c-10 -12 -10 -21 -2 -40 15 -33 40 -32 82 3 l33 28 -36 -4
c-27 -3 -38 0 -43 12 -8 20 -18 20 -34 1z"/>
<path d="M2449 657 c-30 -20 -74 -85 -65 -95 2 -2 26 13 52 33 32 25 55 35 70
32 25 -4 37 13 28 38 -9 22 -46 18 -85 -8z"/>
<path d="M1518 635 c-21 -47 34 -73 91 -41 l23 13 -32 6 c-20 5 -34 14 -37 27
-7 28 -31 25 -45 -5z"/>
<path d="M2031 631 c-24 -44 1 -91 47 -91 31 0 28 30 -7 74 -28 35 -30 36 -40
17z"/>
<path d="M962 621 c16 -25 31 -27 26 -4 -2 10 -11 19 -21 21 -16 3 -17 1 -5
-17z"/>
<path d="M1155 600 c3 -5 8 -10 11 -10 2 0 4 5 4 10 0 6 -5 10 -11 10 -5 0 -7
-4 -4 -10z"/>
<path d="M1887 597 c-17 -11 -14 -13 25 -12 24 0 45 5 48 10 8 15 -53 18 -73
2z"/>
<path d="M1396 551 c-3 -5 1 -14 9 -21 13 -10 15 -9 15 9 0 21 -14 28 -24 12z"/>
<path d="M1966 537 c-10 -39 -6 -67 10 -74 10 -4 22 1 30 12 11 15 11 22 -1
46 -20 38 -32 43 -39 16z"/>
<path d="M2155 540 c-9 -27 10 -49 26 -33 8 8 7 17 -4 33 l-15 22 -7 -22z"/>
<path d="M1560 531 c-7 -14 -7 -28 2 -48 10 -25 12 -26 16 -8 2 11 9 26 14 32
12 14 4 43 -11 43 -6 0 -15 -9 -21 -19z"/>
<path d="M1665 526 c-10 -15 -15 -40 -13 -68 l3 -43 17 32 c12 21 27 33 45 35
31 4 38 17 21 40 -24 30 -55 32 -73 4z"/>
<path d="M1875 531 c-32 -5 -41 -11 -43 -28 -5 -34 38 -30 73 7 16 17 25 29
19 29 -5 -1 -27 -5 -49 -8z"/>
<path d="M2200 530 c0 -12 28 -25 36 -17 3 3 -4 10 -15 17 -15 7 -21 7 -21 0z"/>
<path d="M1480 504 c6 -14 10 -41 10 -60 0 -19 5 -34 10 -34 15 0 12 45 -4 85
-17 40 -30 48 -16 9z"/>
<path d="M2244 443 c1 -28 6 -39 19 -41 25 -5 32 24 13 53 -23 35 -33 31 -32
-12z"/>
<path d="M2076 453 c-5 -11 -1 -22 10 -30 23 -17 28 -17 66 7 l32 19 -28 11
c-40 15 -73 12 -80 -7z"/>
<path d="M1815 440 c3 -5 14 -10 23 -10 15 0 15 2 2 10 -20 13 -33 13 -25 0z"/>
<path d="M1944 406 c-18 -14 -18 -16 -1 -33 20 -20 40 -12 65 25 14 21 13 22
-15 22 -16 0 -38 -6 -49 -14z"/>
<path d="M1765 400 c-19 -30 42 -40 85 -14 l25 15 -32 -6 c-17 -4 -41 -2 -52
4 -13 7 -22 8 -26 1z"/>
<path d="M2203 400 c-12 -5 -30 -21 -39 -35 -15 -23 -15 -28 -2 -41 22 -23 51
-7 45 25 -3 16 1 33 10 44 18 19 17 19 -14 7z"/>
<path d="M1668 389 c-10 -5 -18 -19 -18 -30 0 -11 -5 -29 -10 -39 -9 -18 -7
-17 31 3 47 25 57 41 39 62 -15 17 -19 18 -42 4z"/>
<path d="M1554 375 c-4 -9 -1 -28 6 -43 11 -26 12 -26 26 -7 8 11 13 29 12 40
-4 25 -36 32 -44 10z"/>
<path d="M2022 340 c-35 -22 -42 -35 -14 -26 10 4 27 -1 38 -9 40 -31 98 -4
63 30 -25 24 -53 25 -87 5z"/>
<path d="M1822 308 c-23 -23 -13 -34 28 -30 31 3 40 8 40 23 0 14 -7 19 -28
19 -15 0 -33 -5 -40 -12z"/>
<path d="M1665 274 l-17 -26 34 7 c42 9 48 13 48 31 0 25 -46 16 -65 -12z"/>
<path d="M1940 275 c7 -8 24 -15 39 -15 25 1 25 1 -8 15 -42 19 -47 19 -31 0z"/>
<path d="M1662 218 c-16 -16 -15 -39 2 -64 8 -11 16 -31 18 -44 4 -25 4 -25
21 7 28 52 18 113 -18 113 -6 0 -16 -5 -23 -12z"/>
</g>
</svg>
